# xmcd CD database file
# Copyright (C) 1993-1996 Ti Kan
#
# Track frame offsets:
#	150
#	14545
#	25825
#	40864
#	53725
#	64980
#	77162
#	89307
#	102045
#	116187
#	133292
#	148485
#	170652
#	184452
#	196615
#
# Disc length: 2869 seconds
#
# Revision: 1
# Processed by: cddbd v1.4b41PL1 Copyright (c) Steve Scherf et al.
# Submitted via: CDValet v3.01 - Copyright (c) 1997 Greg Leichner
#
DISCID=db0b330f
DTITLE=Unidynes - Once in a Blue Room
DYEAR=1900
DGENRE=
TTITLE0=End of the Line
TTITLE1=That's Cold
TTITLE2=Killer Road
TTITLE3=That
TTITLE4=Sit Down Baby
TTITLE5=Spending Spree
TTITLE6=I'm Dreamin'
TTITLE7=Blue Room
TTITLE8=Big Girl
TTITLE9=Find My Way Home
TTITLE10=Goodnight Jesus
TTITLE11=Not Bound for Glory
TTITLE12=Beer Bottle Boogie
TTITLE13=I Can't Dance
TTITLE14=Christmas Used to Be
EXTD=The Unidynes ... the premier blues band of the Great Midwest!
EXTT0=
EXTT1=
EXTT2=
EXTT3=
EXTT4=
EXTT5=
EXTT6=
EXTT7=
EXTT8=
EXTT9=
EXTT10=
EXTT11=
EXTT12=
EXTT13=
EXTT14=
PLAYORDER=
